# xmcd CD database file
#
# Track frame offsets:
#	150
#	90198
#	136660
#	179346
#	236588
#	258949
#
# Disc length: 4772 seconds
#
# Revision: 1
# Processed by: cddbd v1.5.1PL2 Copyright (c) Steve Scherf et al.
# Submitted via: CDex 1.51
#
DISCID=3e12a206
DTITLE=Donal Fox - Scarlatti Jazz Suite
DYEAR=2003
DGENRE=Jazz
TTITLE0=Scarlatti Jazz Suite (Fox)
TTITLE1=Blues on Handel (Fox)
TTITLE2=Django (J. Lewis)
TTITLE3=Variation on Bach's Fugue in B Flat (Fox)
TTITLE4=Siciliano (Bach)
TTITLE5=Italian Concerto Blues (Fox)
EXTD=YEAR: 2003
EXTT0=
EXTT1=
EXTT2=
EXTT3=
EXTT4=
EXTT5=
PLAYORDER=
